<svg width="483" height="483" viewBox="0 0 483 483" fill="none" xmlns="http://www.w3.org/2000/svg">
<path d="M234.4 2.26684C230.933 3.46684 227.733 4.80017 227.333 5.3335C226.8 5.86684 229.867 11.3335 234 17.6002C271.6 74.2668 282.8 144 264.4 209.067C257.333 234.534 245.2 259.467 228.933 282.4C218 297.734 191.6 323.867 176.133 334.4C169.333 339.2 162.533 344 161.067 345.067C158.667 346.934 160.4 350 199.333 414.4C221.733 451.467 240.4 481.867 241.067 482.134C241.6 482.267 296.133 428.267 362.4 362L482.667 241.734L361.6 120.934L240.667 0.000170167L234.4 2.26684Z" fill="url(#paint0_linear_183_8)"/>
<path d="M142 34.0005C111.2 44.6672 77.3333 56.2672 66.6667 60.0005C17.7333 76.8005 0 83.2005 0 84.0005C0 85.0672 142.267 321.067 144 322.934C146.267 325.201 170 307.201 186.667 290.401C210.933 266.267 224.533 244.667 235.867 212.534C243.733 190.134 245.867 176.667 245.867 147.067C245.867 124.267 245.467 118.401 242.933 106.401C239.067 88.8005 233.467 72.0005 226.8 57.8672C221.2 46.1339 204.8 20.5338 200.533 16.9338C198.133 14.8005 194.667 15.8672 142 34.0005Z" fill="url(#paint1_linear_183_8)"/>
<path d="M21.4658 218.934C1.59917 238.801 -0.267495 241.067 0.265838 244.534C1.06584 248.401 35.1992 348.134 36.6658 350.401C38.6658 353.734 72.1325 350.534 93.5992 344.934C106.399 341.734 124.932 334.801 126.132 332.934C127.066 331.201 46.6658 197.067 44.6658 197.067C43.8658 197.067 33.4658 206.934 21.4658 218.934Z" fill="url(#paint2_linear_183_8)"/>
<path d="M131.199 359.734C121.999 364 95.466 372.134 83.1994 374.267C78.9327 375.067 69.1994 376.267 61.5994 376.8C54.1327 377.467 47.5994 378.4 47.1994 378.8C46.1327 379.867 81.5994 482.4 83.066 482.4C84.9327 482.4 180.266 424.534 180.799 423.067C181.333 421.867 146.266 362.134 142.399 357.334C140.666 355.334 140.933 355.2 131.199 359.734Z" fill="url(#paint3_linear_183_8)"/>
<defs>
<linearGradient id="paint0_linear_183_8" x1="321.515" y1="0.000183105" x2="321.515" y2="482.134" gradientUnits="userSpaceOnUse">
<stop stop-color="#FF5043"/>
<stop offset="1" stop-color="#FF1200"/>
</linearGradient>
<linearGradient id="paint1_linear_183_8" x1="122.933" y1="16.1378" x2="122.933" y2="323.128" gradientUnits="userSpaceOnUse">
<stop stop-color="#FF5043"/>
<stop offset="1" stop-color="#FF1200"/>
</linearGradient>
<linearGradient id="paint2_linear_183_8" x1="63.166" y1="197.067" x2="63.166" y2="351.755" gradientUnits="userSpaceOnUse">
<stop stop-color="#FF5043"/>
<stop offset="1" stop-color="#FF1200"/>
</linearGradient>
<linearGradient id="paint3_linear_183_8" x1="113.991" y1="356.008" x2="113.991" y2="482.4" gradientUnits="userSpaceOnUse">
<stop stop-color="#FF5043"/>
<stop offset="1" stop-color="#FF1200"/>
</linearGradient>
</defs>
</svg>
